<?xml version="1.0" standalone="no"?>
<!DOCTYPE svg PUBLIC "-//W3C//DTD SVG 20010904//EN"
 "http://www.w3.org/TR/2001/REC-SVG-20010904/DTD/svg10.dtd">
<svg version="1.0" xmlns="http://www.w3.org/2000/svg"
 width="500.000000pt" height="500.000000pt" viewBox="0 0 500.000000 500.000000"
 preserveAspectRatio="xMidYMid meet">

<g transform="translate(0.000000,500.000000) scale(0.100000,-0.100000)"
fill="#000000" stroke="none">
<path d="M1265 3739 c-270 -37 -508 -173 -662 -377 -134 -177 -221 -411 -238
-633 -3 -41 -13 -106 -22 -145 -14 -59 -14 -78 -4 -115 7 -24 21 -91 31 -149
25 -142 35 -185 66 -271 111 -312 327 -534 609 -628 129 -43 232 -55 404 -48
218 9 362 49 501 142 85 57 158 136 199 218 50 101 61 162 61 349 0 92 2 168
5 168 10 0 221 31 243 35 17 4 22 12 22 35 l0 30 -77 0 -78 0 43 21 c37 18 82
73 70 85 -13 12 -78 33 -78 24 0 -20 -41 -50 -69 -50 -39 0 -61 32 -61 87 0
67 47 101 101 73 10 -6 19 -17 19 -25 0 -18 4 -18 53 -4 36 10 37 10 23 37
-21 41 -50 63 -95 73 -57 13 -118 -3 -155 -40 -28 -28 -31 -38 -34 -103 -3
-64 -1 -78 20 -108 13 -19 39 -43 58 -52 34 -18 27 -18 -277 -18 l-313 0 0
-30 c0 -34 -1 -33 125 -50 44 -6 92 -13 108 -16 l27 -6 0 -176 c0 -251 -26
-353 -119 -470 -89 -112 -216 -166 -386 -165 -179 1 -319 57 -435 173 -143
145 -217 343 -227 618 l-6 132 37 0 36 0 0 50 c0 46 2 50 24 50 18 0 32 -12
55 -50 31 -49 31 -50 82 -50 l51 0 -17 27 c-10 14 -27 42 -38 60 l-20 34 21
22 c28 30 37 71 22 108 -19 46 -56 59 -161 59 l-91 0 5 178 c4 148 9 193 31
277 55 211 146 348 300 455 214 146 562 130 791 -38 38 -27 46 -43 129 -253
49 -123 93 -230 99 -236 5 -7 20 -13 33 -13 l24 0 0 355 0 355 -28 0 c-20 0
-51 -21 -114 -75 l-86 -75 -58 35 c-115 69 -237 102 -404 109 -58 3 -136 1
-175 -5z m-695 -1094 c25 -13 50 -42 50 -58 0 -3 -11 -7 -25 -9 -16 -3 -30 1
-41 13 -12 13 -31 19 -60 19 -56 0 -84 -33 -84 -97 0 -36 6 -50 29 -74 32 -31
51 -35 100 -18 23 8 31 17 31 35 0 21 -5 24 -35 24 -28 0 -35 4 -35 20 0 18 7
20 65 20 l65 0 0 -56 0 -55 -46 -21 c-71 -31 -154 -22 -196 20 -27 26 -32 40
-36 90 -5 70 13 113 61 142 39 24 116 26 157 5z m339 4 c37 -13 51 -35 51 -83
0 -28 -7 -40 -29 -57 l-30 -22 35 -51 c19 -28 34 -54 34 -58 0 -5 -13 -8 -29
-8 -25 0 -35 8 -63 55 -30 51 -35 55 -70 55 l-38 0 0 -55 c0 -54 0 -55 -30
-55 l-30 0 0 138 c0 76 3 142 7 145 11 11 157 8 192 -4z m1484 -29 l30 -34
-26 -9 c-20 -6 -30 -4 -46 12 -32 32 -94 29 -120 -5 -33 -42 -29 -108 9 -146
26 -25 36 -29 63 -24 18 3 41 17 52 30 17 20 24 22 43 13 25 -11 26 -16 9 -37
-42 -53 -134 -67 -195 -30 -82 50 -82 199 0 250 26 17 45 20 92 17 52 -3 62
-7 89 -37z"/>
<path d="M770 2570 l0 -41 63 3 c60 3 62 4 65 32 5 37 -10 46 -75 46 l-53 0 0
-40z m105 16 c29 -21 3 -46 -46 -46 -37 0 -39 2 -39 30 0 27 3 30 33 30 18 0
42 -6 52 -14z"/>
<path d="M3565 3739 c-486 -62 -836 -450 -897 -994 -7 -68 -18 -111 -32 -135
-32 -54 -29 -144 7 -198 15 -23 27 -54 27 -69 0 -42 35 -199 61 -273 89 -261
251 -464 469 -588 221 -125 579 -148 867 -57 212 67 378 231 428 422 11 40 15
109 15 230 0 95 2 173 5 173 10 0 221 31 243 35 17 4 22 12 22 35 l0 30 -425
0 -425 0 0 -30 c0 -34 -1 -33 125 -50 44 -6 93 -13 108 -16 l29 -6 -4 -212
c-4 -183 -8 -219 -26 -269 -34 -93 -72 -154 -129 -208 -193 -183 -569 -162
-775 43 -143 144 -222 353 -235 626 l-6 132 102 0 101 0 0 35 0 35 -75 0 -75
0 0 120 0 120 -25 0 -25 0 0 128 c0 400 141 692 395 816 186 91 435 87 632
-10 130 -64 134 -70 237 -329 86 -217 93 -230 119 -233 l27 -3 0 355 0 356
-26 0 c-17 0 -53 -23 -111 -72 -47 -40 -89 -72 -94 -71 -5 2 -30 16 -56 32
-140 86 -371 126 -578 100z m-715 -1094 c25 -13 50 -42 50 -58 0 -3 -11 -7
-25 -9 -16 -3 -30 1 -41 13 -12 13 -31 19 -60 19 -56 0 -84 -33 -84 -97 0 -36
6 -50 29 -74 32 -31 51 -35 100 -18 23 8 31 17 31 35 0 21 -5 24 -35 24 -28 0
-35 4 -35 20 0 18 7 20 65 20 l65 0 0 -56 0 -55 -46 -21 c-71 -31 -154 -22
-196 20 -27 26 -32 40 -36 90 -5 70 13 113 61 142 39 24 116 26 157 5z m200
-105 l0 -119 78 -3 c71 -3 77 -5 80 -25 3 -23 2 -23 -107 -23 l-111 0 0 138
c0 76 3 142 7 145 3 4 17 7 30 7 23 0 23 -1 23 -120z"/>
<path d="M1111 2643 c-17 -44 -101 -276 -101 -280 0 -2 21 -3 47 -1 44 3 48 5
57 36 9 32 11 33 55 30 42 -3 46 -6 55 -35 8 -31 11 -33 57 -33 l48 0 -36 98
c-19 53 -44 123 -55 155 l-20 57 -48 0 c-43 0 -49 -3 -59 -27z m145 -128 c47
-129 49 -140 32 -143 -31 -6 -46 5 -53 37 -6 30 -8 31 -65 31 -58 0 -59 0 -70
-35 -10 -30 -16 -35 -42 -35 -21 0 -29 4 -25 13 3 7 26 73 53 145 l47 133 36
-3 36 -3 51 -140z"/>
<path d="M1151 2559 c-7 -22 -15 -47 -18 -55 -4 -11 5 -14 35 -14 l41 0 -16
48 c-22 66 -28 69 -42 21z m29 -40 c0 -11 -7 -19 -16 -19 -11 0 -14 5 -10 16
3 9 6 20 6 25 0 6 5 7 10 4 6 -3 10 -15 10 -26z"/>
<path d="M1360 2515 l0 -155 44 0 45 0 3 48 3 47 57 5 c77 7 111 38 112 105 1
41 -3 50 -32 76 -31 28 -36 29 -132 29 l-100 0 0 -155z m226 111 c31 -36 32
-86 1 -122 -20 -23 -34 -28 -85 -32 l-62 -4 0 -49 c0 -48 -1 -49 -30 -49 l-30
0 0 146 0 146 91 -4 c85 -4 94 -6 115 -32z"/>
<path d="M1440 2565 l0 -45 43 0 c47 0 67 13 67 45 0 32 -20 45 -67 45 l-43 0
0 -45z m84 19 c9 -8 16 -17 16 -19 0 -14 -37 -35 -61 -35 -25 0 -29 4 -29 28
0 16 3 32 7 35 12 13 51 7 67 -9z"/>
<path d="M1670 2515 l0 -155 45 0 45 0 0 60 0 60 45 0 45 0 0 -60 0 -60 45 0
45 0 0 155 0 155 -45 0 -45 0 0 -55 0 -55 -45 0 -45 0 0 55 0 55 -45 0 -45 0
0 -155z m70 85 l0 -60 65 0 65 0 0 60 0 60 30 0 30 0 0 -145 0 -145 -30 0 -30
0 0 60 0 60 -65 0 -65 0 0 -60 0 -60 -30 0 -30 0 0 138 c0 76 3 142 7 145 3 4
17 7 30 7 22 0 23 -4 23 -60z"/>
<path d="M2000 2515 l0 -155 45 0 45 0 0 155 0 155 -45 0 -45 0 0 -155z m78
-2 l3 -143 -31 0 -30 0 0 146 0 145 28 -3 27 -3 3 -142z"/>
<path d="M3260 2515 l0 -155 45 0 45 0 0 155 0 155 -45 0 -45 0 0 -155z m80 0
l0 -145 -30 0 -30 0 0 145 0 145 30 0 30 0 0 -145z"/>
<path d="M3410 2515 l0 -155 40 0 39 0 3 58 3 57 19 -57 c19 -57 20 -58 57
-58 36 0 37 1 49 50 17 69 30 72 30 6 l0 -56 40 0 40 0 0 155 0 155 -54 0 -54
0 -23 -75 c-12 -41 -25 -75 -29 -75 -3 0 -17 34 -30 75 l-24 75 -53 0 -53 0 0
-155z m125 43 c16 -54 32 -98 35 -98 3 0 19 44 35 98 l31 97 37 3 37 3 0 -145
0 -146 -25 0 -25 0 -1 108 0 107 -33 -105 c-30 -93 -36 -105 -57 -105 -20 0
-27 12 -56 100 l-32 100 -1 -102 0 -103 -30 0 -30 0 0 138 c0 76 3 142 7 146
4 4 23 6 42 4 l35 -3 31 -97z"/>
<path d="M3790 2515 l0 -155 40 0 40 0 1 58 1 57 20 -58 c20 -57 21 -58 56
-55 33 3 37 7 53 53 l17 50 1 -52 1 -53 45 0 45 0 0 155 0 155 -54 0 -54 0
-28 -82 -28 -83 -25 82 -26 83 -52 0 -53 0 0 -155z m123 39 l35 -107 32 107
33 106 39 0 38 0 0 -145 0 -145 -25 0 -25 0 -1 108 -1 107 -35 -107 c-30 -96
-37 -108 -57 -108 -20 0 -26 13 -58 113 l-36 112 -1 -112 -1 -113 -25 0 -25 0
0 145 0 145 39 0 40 0 34 -106z"/>
<path d="M4160 2515 l0 -155 135 0 135 0 0 35 0 34 -87 3 c-80 3 -88 5 -88 23
0 18 8 20 78 23 l77 3 0 34 0 34 -77 3 c-70 3 -78 5 -78 23 0 18 8 20 83 23
l82 3 0 34 0 35 -130 0 -130 0 0 -155z m240 120 c0 -25 -1 -25 -80 -25 l-80 0
0 -35 0 -35 75 0 c73 0 75 -1 75 -25 0 -24 -2 -25 -75 -25 l-75 0 0 -35 0 -35
85 0 c84 0 85 0 85 -25 l0 -25 -115 0 -115 0 0 145 0 145 110 0 110 0 0 -25z"/>
<path d="M4470 2515 l0 -155 45 0 45 0 0 50 c0 48 1 50 28 50 22 0 32 -9 55
-50 28 -49 29 -50 78 -50 27 0 49 3 49 8 0 4 -16 31 -35 59 l-35 52 25 25 c19
19 25 35 25 70 0 37 -5 48 -31 70 -29 25 -37 26 -140 26 l-109 0 0 -155z m215
131 c62 -26 71 -93 20 -140 l-25 -23 28 -44 c16 -24 31 -50 36 -56 5 -10 -2
-13 -26 -13 -30 0 -37 6 -66 55 -30 50 -36 55 -68 55 l-34 0 0 -55 c0 -54 0
-55 -30 -55 l-30 0 0 145 0 145 80 0 c48 0 95 -6 115 -14z"/>
<path d="M4550 2570 l0 -41 56 3 c41 2 60 8 68 21 20 32 -4 52 -68 55 l-56 3
0 -41z m98 21 c8 -5 12 -17 10 -27 -2 -14 -13 -20 -46 -22 -44 -3 -61 11 -48
43 6 16 62 20 84 6z"/>
</g>
</svg>
