<svg xmlns="http://www.w3.org/2000/svg" version="1.1" xmlns:xlink="http://www.w3.org/1999/xlink" xmlns:svgjs="http://svgjs.dev/svgjs" width="1500" height="1500" viewBox="0 0 1500 1500"><rect width="1500" height="1500" fill="#ffffff"></rect><g transform="matrix(0.6666666666666666,0,0,0.6666666666666666,249.39393939393938,438.5856950067477)"><svg viewBox="0 0 396 247" data-background-color="#f8f8f8" preserveAspectRatio="xMidYMid meet" height="935" width="1500" xmlns="http://www.w3.org/2000/svg" xmlns:xlink="http://www.w3.org/1999/xlink"><g id="tight-bounds" transform="matrix(1,0,0,1,0.2400000000000091,-0.09999999999999432)"><svg viewBox="0 0 395.52 247.2" height="247.2" width="395.52"><g><svg></svg></g><g><svg viewBox="0 0 395.52 247.2" height="247.2" width="395.52"><mask id="aee7dd16-90ac-40b7-96da-3551e64938ba"><rect width="395.52" height="247.2" fill="white"></rect><g transform="matrix(1,0,0,1,0,96.2942259414226)" id="clone"><svg viewBox="0 0 395.52 54.611548117154804" height="54.611548117154804" width="395.52"><g><svg viewBox="0 0 395.52 54.611548117154804" height="54.611548117154804" width="395.52"><g><svg viewBox="0 0 395.52 54.611548117154804" height="54.611548117154804" width="395.52"><g><svg viewBox="0 0 395.52 54.611548117154804" height="54.611548117154804" width="395.52"><g id="SvgjsG4718"><svg viewBox="0 0 395.52 54.611548117154804" height="54.611548117154804" width="395.52" id="SvgjsSvg4717"><g><svg viewBox="0 0 395.52 54.611548117154804" height="54.611548117154804" width="395.52"><g transform="matrix(1,0,0,1,0,0)"><svg width="395.52" viewBox="-0.8500000000000001 -40.3 395.32000000000005 55.45" height="54.611548117154804" data-palette-color="#61777f"><path d="M21.05 0.5Q15.6 0.5 11.3-2 7-4.5 4.58-8.88 2.15-13.25 2.15-18.7L2.15-18.7Q2.15-24 4.6-28.25 7.05-32.5 11.4-34.9 15.75-37.3 21.2-37.3L21.2-37.3Q24.15-37.3 26.53-36.77 28.9-36.25 30.4-35.58 31.9-34.9 32.45-34.4L32.45-34.4 30.25-29.7Q27.15-32.2 21.1-32.2L21.1-32.2Q17.1-32.2 14.15-30.45 11.2-28.7 9.65-25.7 8.1-22.7 8.1-19L8.1-19Q8.1-14.8 9.78-11.5 11.45-8.2 14.43-6.38 17.4-4.55 21.15-4.55L21.15-4.55Q23.5-4.55 25.65-5.13 27.8-5.7 29.3-6.95L29.3-6.95 29.3-14.05 21.75-14.05 21.75-19.2 34.85-19.2 34.85-4.8Q33.05-2.55 29.43-1.03 25.8 0.5 21.05 0.5L21.05 0.5ZM40.6 0L40.6-22.95 46-22.95 46-18.45Q46.8-20.75 48.6-22.15 50.4-23.55 52.7-23.55L52.7-23.55Q54.3-23.55 54.9-23.25L54.9-23.25 54.15-17.8Q53.7-18.1 52.2-18.1L52.2-18.1Q49.85-18.1 47.92-16.6 46-15.1 46-11.8L46-11.8 46 0 40.6 0ZM68.85 0.5Q65.75 0.5 63.12-0.98 60.5-2.45 58.92-5.18 57.35-7.9 57.35-11.55L57.35-11.55Q57.35-15.15 58.72-17.85 60.1-20.55 62.65-22.05 65.2-23.55 68.65-23.55L68.65-23.55Q70.65-23.55 72.4-22.85 74.15-22.15 75.35-21.13 76.55-20.1 76.95-19.1L76.95-19.1 77.05-22.95 82.2-22.95 82.2 0 77.1 0 77-4.05Q76.15-2.25 73.9-0.88 71.65 0.5 68.85 0.5L68.85 0.5ZM69.75-4Q72.6-4 74.55-5.98 76.5-7.95 76.5-11.15L76.5-11.15 76.5-11.5Q76.5-13.65 75.6-15.35 74.7-17.05 73.15-18 71.6-18.95 69.75-18.95L69.75-18.95Q66.55-18.95 64.8-16.88 63.05-14.8 63.05-11.5L63.05-11.5Q63.05-8.15 64.77-6.08 66.5-4 69.75-4L69.75-4ZM89.54 12.15L89.54-22.95 94.74-22.95 94.74-18.7Q97.49-23.55 103.34-23.55L103.34-23.55Q108.19-23.55 111.19-20.48 114.19-17.4 114.19-11.6L114.19-11.6Q114.19-8 112.72-5.25 111.24-2.5 108.72-1 106.19 0.5 103.09 0.5L103.09 0.5Q100.19 0.5 98.07-0.53 95.94-1.55 94.74-3.45L94.74-3.45 94.79 12.15 89.54 12.15ZM101.84-4.05Q105.09-4.05 106.84-6.13 108.59-8.2 108.59-11.45L108.59-11.45Q108.59-14.85 106.87-16.88 105.14-18.9 101.84-18.9L101.84-18.9Q100.04-18.9 98.47-18.03 96.89-17.15 95.97-15.53 95.04-13.9 95.04-11.75L95.04-11.75 95.04-11.4Q95.04-9.25 95.97-7.58 96.89-5.9 98.44-4.98 99.99-4.05 101.84-4.05L101.84-4.05ZM120.19 0L120.19-36.75 125.44-36.75 125.44-22.95 125.24-18.7Q126.19-20.8 128.29-22.18 130.39-23.55 133.19-23.55L133.19-23.55Q136.74-23.55 138.64-22.08 140.54-20.6 141.19-17.95 141.84-15.3 141.84-11.05L141.84-11.05 141.84 0 136.49 0 136.49-11.1Q136.49-14 136.17-15.65 135.84-17.3 134.87-18.15 133.89-19 132.04-19L132.04-19Q130.54-19 129.02-18.1 127.49-17.2 126.49-15.48 125.49-13.75 125.49-11.4L125.49-11.4 125.49 0 120.19 0ZM149.09 0L149.09-22.95 154.69-22.95 154.69 0 149.09 0ZM151.84-27.25Q150.29-27.25 149.24-28.3 148.19-29.35 148.19-30.9L148.19-30.9Q148.19-32.3 149.24-33.3 150.29-34.3 151.84-34.3L151.84-34.3Q153.34-34.3 154.39-33.3 155.44-32.3 155.44-30.9L155.44-30.9Q155.44-29.35 154.41-28.3 153.39-27.25 151.84-27.25L151.84-27.25ZM172.89 0.5Q169.49 0.5 166.76-0.98 164.04-2.45 162.44-5.23 160.84-8 160.84-11.75L160.84-11.75Q160.84-15.3 162.31-17.98 163.79-20.65 166.46-22.1 169.14-23.55 172.64-23.55L172.64-23.55Q175.29-23.55 177.21-22.88 179.14-22.2 180.24-21.2L180.24-21.2 177.84-16.85Q175.74-18.95 173.09-18.95L173.09-18.95Q169.89-18.95 168.21-17 166.54-15.05 166.54-11.8L166.54-11.8Q166.54-8.1 168.26-6.05 169.99-4 173.09-4L173.09-4Q174.64-4 176.11-4.45 177.59-4.9 178.39-5.5L178.39-5.5 180.34-1.7Q179.24-0.85 177.26-0.18 175.29 0.5 172.89 0.5L172.89 0.5ZM215.23 0.5Q209.78 0.5 205.48-2 201.18-4.5 198.76-8.88 196.33-13.25 196.33-18.7L196.33-18.7Q196.33-24 198.78-28.25 201.23-32.5 205.58-34.9 209.93-37.3 215.38-37.3L215.38-37.3Q218.33-37.3 220.71-36.77 223.08-36.25 224.58-35.58 226.08-34.9 226.63-34.4L226.63-34.4 224.43-29.7Q221.33-32.2 215.28-32.2L215.28-32.2Q211.28-32.2 208.33-30.45 205.38-28.7 203.83-25.7 202.28-22.7 202.28-19L202.28-19Q202.28-14.8 203.96-11.5 205.63-8.2 208.61-6.38 211.58-4.55 215.33-4.55L215.33-4.55Q217.68-4.55 219.83-5.13 221.98-5.7 223.48-6.95L223.48-6.95 223.48-14.05 215.93-14.05 215.93-19.2 229.03-19.2 229.03-4.8Q227.23-2.55 223.61-1.03 219.98 0.5 215.23 0.5L215.23 0.5ZM235.38 0L235.38-36.75 240.73-36.75 240.73 0 235.38 0ZM248.73 0L248.73-22.95 254.33-22.95 254.33 0 248.73 0ZM251.48-27.25Q249.93-27.25 248.88-28.3 247.83-29.35 247.83-30.9L247.83-30.9Q247.83-32.3 248.88-33.3 249.93-34.3 251.48-34.3L251.48-34.3Q252.98-34.3 254.03-33.3 255.08-32.3 255.08-30.9L255.08-30.9Q255.08-29.35 254.05-28.3 253.03-27.25 251.48-27.25L251.48-27.25ZM261.82 0L261.82-22.95 267.22-22.95 267.22-18.8Q268.32-21.15 270.45-22.35 272.57-23.55 275.32-23.55L275.32-23.55Q281.47-23.5 282.87-19.3L282.87-19.3Q283.97-21.25 286.17-22.4 288.37-23.55 290.82-23.55L290.82-23.55Q294.42-23.55 296.27-22.18 298.12-20.8 298.75-18.28 299.37-15.75 299.37-11.5L299.37-11.5 299.37 0 293.92 0 293.92-11.55Q293.92-15.6 293.1-17.35 292.27-19.1 289.92-19.1L289.92-19.1Q286.77-19.1 285.15-16.98 283.52-14.85 283.52-11.4L283.52-11.4 283.52 0 278.12 0 278.12-12.35Q278.12-15 277.92-16.3 277.72-17.6 276.82-18.35 275.92-19.1 273.92-19.1L273.92-19.1Q272.17-19.1 270.65-18.05 269.12-17 268.2-15.23 267.27-13.45 267.27-11.4L267.27-11.4 267.27 0 261.82 0ZM306.27 0L306.27-22.95 311.67-22.95 311.67-18.8Q312.77-21.15 314.9-22.35 317.02-23.55 319.77-23.55L319.77-23.55Q325.92-23.5 327.32-19.3L327.32-19.3Q328.42-21.25 330.62-22.4 332.82-23.55 335.27-23.55L335.27-23.55Q338.87-23.55 340.72-22.18 342.57-20.8 343.2-18.28 343.82-15.75 343.82-11.5L343.82-11.5 343.82 0 338.37 0 338.37-11.55Q338.37-15.6 337.55-17.35 336.72-19.1 334.37-19.1L334.37-19.1Q331.22-19.1 329.6-16.98 327.97-14.85 327.97-11.4L327.97-11.4 327.97 0 322.57 0 322.57-12.35Q322.57-15 322.37-16.3 322.17-17.6 321.27-18.35 320.37-19.1 318.37-19.1L318.37-19.1Q316.62-19.1 315.1-18.05 313.57-17 312.65-15.23 311.72-13.45 311.72-11.4L311.72-11.4 311.72 0 306.27 0ZM361.57 0.5Q357.47 0.5 354.72-1.13 351.97-2.75 350.67-5.48 349.37-8.2 349.37-11.45L349.37-11.45Q349.37-15.1 350.89-17.85 352.42-20.6 355.12-22.08 357.82-23.55 361.22-23.55L361.22-23.55Q366.52-23.55 369.09-20.63 371.67-17.7 371.67-12.4L371.67-12.4Q371.67-11.05 371.52-9.6L371.52-9.6 355.02-9.6Q355.57-6.55 357.19-5.2 358.82-3.85 361.72-3.85L361.72-3.85Q364.12-3.85 365.67-4.25 367.22-4.65 368.52-5.35L368.52-5.35 370.17-1.5Q368.92-0.7 366.77-0.1 364.62 0.5 361.57 0.5L361.57 0.5ZM355.02-13.35L366.42-13.35Q366.47-16.45 365.07-17.73 363.67-19 361.07-19L361.07-19Q355.82-19 355.02-13.35L355.02-13.35ZM377.17 0L377.17-22.95 382.57-22.95 382.57-18.45Q383.37-20.75 385.17-22.15 386.97-23.55 389.27-23.55L389.27-23.55Q390.87-23.55 391.47-23.25L391.47-23.25 390.72-17.8Q390.27-18.1 388.77-18.1L388.77-18.1Q386.42-18.1 384.49-16.6 382.57-15.1 382.57-11.8L382.57-11.8 382.57 0 377.17 0Z" opacity="1" transform="matrix(1,0,0,1,0,0)" fill="black" class="wordmark-text-0" id="SvgjsPath4716" stroke-width="5" stroke="black" stroke-linejoin="round"></path></svg></g></svg></g></svg></g></svg></g><g></g></svg></g></svg></g></svg></g></mask><g mask="url(#aee7dd16-90ac-40b7-96da-3551e64938ba)"><g><path d="M107.402 230.002c-20.455 0-38.751-4.691-54.89-14.074-16.139-9.383-28.749-22.294-37.832-38.733-9.12-16.401-13.68-34.829-13.68-55.284v0c0-19.892 4.598-37.813 13.793-53.764 9.195-15.951 21.956-28.43 38.282-37.438 16.326-9.008 34.717-13.511 55.172-13.511v0c11.072 0 21.074 0.995 30.006 2.983 8.895 1.952 16.157 4.185 21.788 6.7 5.63 2.552 9.477 4.767 11.541 6.643v0l-12.386 26.46c-11.635-9.383-28.806-14.074-51.512-14.075v0c-15.013 0-28.055 3.284-39.127 9.852-11.072 6.568-19.516 15.482-25.334 26.742-5.817 11.26-8.726 23.833-8.726 37.719v0c0 15.763 3.153 29.838 9.458 42.223 6.268 12.385 14.994 21.994 26.178 28.825 11.147 6.868 23.758 10.302 37.832 10.302v0c8.82 0 17.265-1.088 25.334-3.265 8.069-2.139 14.919-5.555 20.549-10.246v0-39.972h-42.505v-28.993h73.75v81.069c-6.756 8.445-16.927 15.519-30.513 21.224-13.624 5.742-29.35 8.614-47.178 8.613zM316.829 230.002c-20.455 0-38.751-4.691-54.89-14.074-16.139-9.383-28.749-22.294-37.832-38.733-9.12-16.401-13.68-34.829-13.68-55.284v0c0-19.892 4.598-37.813 13.793-53.764 9.195-15.951 21.956-28.43 38.282-37.438 16.326-9.008 34.717-13.511 55.172-13.511v0c11.072 0 21.074 0.995 30.006 2.983 8.895 1.952 16.157 4.185 21.788 6.7 5.63 2.552 9.477 4.767 11.541 6.643v0l-12.386 26.46c-11.635-9.383-28.806-14.074-51.512-14.075v0c-15.013 0-28.055 3.284-39.127 9.852-11.072 6.568-19.516 15.482-25.334 26.742-5.817 11.26-8.726 23.833-8.726 37.719v0c0 15.763 3.153 29.838 9.458 42.223 6.268 12.385 14.994 21.994 26.178 28.825 11.147 6.868 23.758 10.302 37.832 10.302v0c8.82 0 17.265-1.088 25.334-3.265 8.069-2.139 14.919-5.555 20.549-10.246v0-39.972h-42.505v-28.993h73.75v81.069c-6.756 8.445-16.927 15.519-30.513 21.224-13.624 5.742-29.35 8.614-47.178 8.613z" fill="#000000" fill-rule="nonzero" stroke="none" stroke-width="1" stroke-linecap="butt" stroke-linejoin="miter" stroke-miterlimit="10" stroke-dasharray="" stroke-dashoffset="0" font-family="none" font-weight="none" font-size="none" text-anchor="none" style="mix-blend-mode: normal" data-fill-palette-color="tertiary"></path></g></g><g transform="matrix(1,0,0,1,0,96.2942259414226)"><svg viewBox="0 0 395.52 54.611548117154804" height="54.611548117154804" width="395.52"><g><svg viewBox="0 0 395.52 54.611548117154804" height="54.611548117154804" width="395.52"><g><svg viewBox="0 0 395.52 54.611548117154804" height="54.611548117154804" width="395.52"><g><svg viewBox="0 0 395.52 54.611548117154804" height="54.611548117154804" width="395.52"><g id="textblocktransform"><svg viewBox="0 0 395.52 54.611548117154804" height="54.611548117154804" width="395.52" id="textblock"><g><svg viewBox="0 0 395.52 54.611548117154804" height="54.611548117154804" width="395.52"><g transform="matrix(1,0,0,1,0,0)"><svg width="395.52" viewBox="-0.8500000000000001 -40.3 395.32000000000005 55.45" height="54.611548117154804" data-palette-color="#61777f"><path d="M21.05 0.5Q15.6 0.5 11.3-2 7-4.5 4.58-8.88 2.15-13.25 2.15-18.7L2.15-18.7Q2.15-24 4.6-28.25 7.05-32.5 11.4-34.9 15.75-37.3 21.2-37.3L21.2-37.3Q24.15-37.3 26.53-36.77 28.9-36.25 30.4-35.58 31.9-34.9 32.45-34.4L32.45-34.4 30.25-29.7Q27.15-32.2 21.1-32.2L21.1-32.2Q17.1-32.2 14.15-30.45 11.2-28.7 9.65-25.7 8.1-22.7 8.1-19L8.1-19Q8.1-14.8 9.78-11.5 11.45-8.2 14.43-6.38 17.4-4.55 21.15-4.55L21.15-4.55Q23.5-4.55 25.65-5.13 27.8-5.7 29.3-6.95L29.3-6.95 29.3-14.05 21.75-14.05 21.75-19.2 34.85-19.2 34.85-4.8Q33.05-2.55 29.43-1.03 25.8 0.5 21.05 0.5L21.05 0.5ZM40.6 0L40.6-22.95 46-22.95 46-18.45Q46.8-20.75 48.6-22.15 50.4-23.55 52.7-23.55L52.7-23.55Q54.3-23.55 54.9-23.25L54.9-23.25 54.15-17.8Q53.7-18.1 52.2-18.1L52.2-18.1Q49.85-18.1 47.92-16.6 46-15.1 46-11.8L46-11.8 46 0 40.6 0ZM68.85 0.5Q65.75 0.5 63.12-0.98 60.5-2.45 58.92-5.18 57.35-7.9 57.35-11.55L57.35-11.55Q57.35-15.15 58.72-17.85 60.1-20.55 62.65-22.05 65.2-23.55 68.65-23.55L68.65-23.55Q70.65-23.55 72.4-22.85 74.15-22.15 75.35-21.13 76.55-20.1 76.95-19.1L76.95-19.1 77.05-22.95 82.2-22.95 82.2 0 77.1 0 77-4.05Q76.15-2.25 73.9-0.88 71.65 0.5 68.85 0.5L68.85 0.5ZM69.75-4Q72.6-4 74.55-5.98 76.5-7.95 76.5-11.15L76.5-11.15 76.5-11.5Q76.5-13.65 75.6-15.35 74.7-17.05 73.15-18 71.6-18.95 69.75-18.95L69.75-18.95Q66.55-18.95 64.8-16.88 63.05-14.8 63.05-11.5L63.05-11.5Q63.05-8.15 64.77-6.08 66.5-4 69.75-4L69.75-4ZM89.54 12.15L89.54-22.95 94.74-22.95 94.74-18.7Q97.49-23.55 103.34-23.55L103.34-23.55Q108.19-23.55 111.19-20.48 114.19-17.4 114.19-11.6L114.19-11.6Q114.19-8 112.72-5.25 111.24-2.5 108.72-1 106.19 0.5 103.09 0.5L103.09 0.5Q100.19 0.5 98.07-0.53 95.94-1.55 94.74-3.45L94.74-3.45 94.79 12.15 89.54 12.15ZM101.84-4.05Q105.09-4.05 106.84-6.13 108.59-8.2 108.59-11.45L108.59-11.45Q108.59-14.85 106.87-16.88 105.14-18.9 101.84-18.9L101.84-18.9Q100.04-18.9 98.47-18.03 96.89-17.15 95.97-15.53 95.04-13.9 95.04-11.75L95.04-11.75 95.04-11.4Q95.04-9.25 95.97-7.58 96.89-5.9 98.44-4.98 99.99-4.05 101.84-4.05L101.84-4.05ZM120.19 0L120.19-36.75 125.44-36.75 125.44-22.95 125.24-18.7Q126.19-20.8 128.29-22.18 130.39-23.55 133.19-23.55L133.19-23.55Q136.74-23.55 138.64-22.08 140.54-20.6 141.19-17.95 141.84-15.3 141.84-11.05L141.84-11.05 141.84 0 136.49 0 136.49-11.1Q136.49-14 136.17-15.65 135.84-17.3 134.87-18.15 133.89-19 132.04-19L132.04-19Q130.54-19 129.02-18.1 127.49-17.2 126.49-15.48 125.49-13.75 125.49-11.4L125.49-11.4 125.49 0 120.19 0ZM149.09 0L149.09-22.95 154.69-22.95 154.69 0 149.09 0ZM151.84-27.25Q150.29-27.25 149.24-28.3 148.19-29.35 148.19-30.9L148.19-30.9Q148.19-32.3 149.24-33.3 150.29-34.3 151.84-34.3L151.84-34.3Q153.34-34.3 154.39-33.3 155.44-32.3 155.44-30.9L155.44-30.9Q155.44-29.35 154.41-28.3 153.39-27.25 151.84-27.25L151.84-27.25ZM172.89 0.5Q169.49 0.5 166.76-0.98 164.04-2.45 162.44-5.23 160.84-8 160.84-11.75L160.84-11.75Q160.84-15.3 162.31-17.98 163.79-20.65 166.46-22.1 169.14-23.55 172.64-23.55L172.64-23.55Q175.29-23.55 177.21-22.88 179.14-22.2 180.24-21.2L180.24-21.2 177.84-16.85Q175.74-18.95 173.09-18.95L173.09-18.95Q169.89-18.95 168.21-17 166.54-15.05 166.54-11.8L166.54-11.8Q166.54-8.1 168.26-6.05 169.99-4 173.09-4L173.09-4Q174.64-4 176.11-4.45 177.59-4.9 178.39-5.5L178.39-5.5 180.34-1.7Q179.24-0.85 177.26-0.18 175.29 0.5 172.89 0.5L172.89 0.5ZM215.23 0.5Q209.78 0.5 205.48-2 201.18-4.5 198.76-8.88 196.33-13.25 196.33-18.7L196.33-18.7Q196.33-24 198.78-28.25 201.23-32.5 205.58-34.9 209.93-37.3 215.38-37.3L215.38-37.3Q218.33-37.3 220.71-36.77 223.08-36.25 224.58-35.58 226.08-34.9 226.63-34.4L226.63-34.4 224.43-29.7Q221.33-32.2 215.28-32.2L215.28-32.2Q211.28-32.2 208.33-30.45 205.38-28.7 203.83-25.7 202.28-22.7 202.28-19L202.28-19Q202.28-14.8 203.96-11.5 205.63-8.2 208.61-6.38 211.58-4.55 215.33-4.55L215.33-4.55Q217.68-4.55 219.83-5.13 221.98-5.7 223.48-6.95L223.48-6.95 223.48-14.05 215.93-14.05 215.93-19.2 229.03-19.2 229.03-4.8Q227.23-2.55 223.61-1.03 219.98 0.5 215.23 0.5L215.23 0.5ZM235.38 0L235.38-36.75 240.73-36.75 240.73 0 235.38 0ZM248.73 0L248.73-22.95 254.33-22.95 254.33 0 248.73 0ZM251.48-27.25Q249.93-27.25 248.88-28.3 247.83-29.35 247.83-30.9L247.83-30.9Q247.83-32.3 248.88-33.3 249.93-34.3 251.48-34.3L251.48-34.3Q252.98-34.3 254.03-33.3 255.08-32.3 255.08-30.9L255.08-30.9Q255.08-29.35 254.05-28.3 253.03-27.25 251.48-27.25L251.48-27.25ZM261.82 0L261.82-22.95 267.22-22.95 267.22-18.8Q268.32-21.15 270.45-22.35 272.57-23.55 275.32-23.55L275.32-23.55Q281.47-23.5 282.87-19.3L282.87-19.3Q283.97-21.25 286.17-22.4 288.37-23.55 290.82-23.55L290.82-23.55Q294.42-23.55 296.27-22.18 298.12-20.8 298.75-18.28 299.37-15.75 299.37-11.5L299.37-11.5 299.37 0 293.92 0 293.92-11.55Q293.92-15.6 293.1-17.35 292.27-19.1 289.92-19.1L289.92-19.1Q286.77-19.1 285.15-16.98 283.52-14.85 283.52-11.4L283.52-11.4 283.52 0 278.12 0 278.12-12.35Q278.12-15 277.92-16.3 277.72-17.6 276.82-18.35 275.92-19.1 273.92-19.1L273.92-19.1Q272.17-19.1 270.65-18.05 269.12-17 268.2-15.23 267.27-13.45 267.27-11.4L267.27-11.4 267.27 0 261.82 0ZM306.27 0L306.27-22.95 311.67-22.95 311.67-18.8Q312.77-21.15 314.9-22.35 317.02-23.55 319.77-23.55L319.77-23.55Q325.92-23.5 327.32-19.3L327.32-19.3Q328.42-21.25 330.62-22.4 332.82-23.55 335.27-23.55L335.27-23.55Q338.87-23.55 340.72-22.18 342.57-20.8 343.2-18.28 343.82-15.75 343.82-11.5L343.82-11.5 343.82 0 338.37 0 338.37-11.55Q338.37-15.6 337.55-17.35 336.72-19.1 334.37-19.1L334.37-19.1Q331.22-19.1 329.6-16.98 327.97-14.85 327.97-11.4L327.97-11.4 327.97 0 322.57 0 322.57-12.35Q322.57-15 322.37-16.3 322.17-17.6 321.27-18.35 320.37-19.1 318.37-19.1L318.37-19.1Q316.62-19.1 315.1-18.05 313.57-17 312.65-15.23 311.72-13.45 311.72-11.4L311.72-11.4 311.72 0 306.27 0ZM361.57 0.5Q357.47 0.5 354.72-1.13 351.97-2.75 350.67-5.48 349.37-8.2 349.37-11.45L349.37-11.45Q349.37-15.1 350.89-17.85 352.42-20.6 355.12-22.08 357.82-23.55 361.22-23.55L361.22-23.55Q366.52-23.55 369.09-20.63 371.67-17.7 371.67-12.4L371.67-12.4Q371.67-11.05 371.52-9.6L371.52-9.6 355.02-9.6Q355.57-6.55 357.19-5.2 358.82-3.85 361.72-3.85L361.72-3.85Q364.12-3.85 365.67-4.25 367.22-4.65 368.52-5.35L368.52-5.35 370.17-1.5Q368.92-0.7 366.77-0.1 364.62 0.5 361.57 0.5L361.57 0.5ZM355.02-13.35L366.42-13.35Q366.47-16.45 365.07-17.73 363.67-19 361.07-19L361.07-19Q355.82-19 355.02-13.35L355.02-13.35ZM377.17 0L377.17-22.95 382.57-22.95 382.57-18.45Q383.37-20.75 385.17-22.15 386.97-23.55 389.27-23.55L389.27-23.55Q390.87-23.55 391.47-23.25L391.47-23.25 390.72-17.8Q390.27-18.1 388.77-18.1L388.77-18.1Q386.42-18.1 384.49-16.6 382.57-15.1 382.57-11.8L382.57-11.8 382.57 0 377.17 0Z" opacity="1" transform="matrix(1,0,0,1,0,0)" fill="#000000" class="wordmark-text-0" data-fill-palette-color="primary" id="text-0"></path></svg></g></svg></g></svg></g></svg></g><g></g></svg></g></svg></g></svg></g></svg></g><defs></defs></svg><rect width="395.52" height="247.2" fill="none" stroke="none" visibility="hidden"></rect></g></svg></g></svg>